<svg width="402.967578125px" height="125.6124786376953px" xmlns="http://www.w3.org/2000/svg" viewBox="48.516210937500006 12.193760681152348 402.967578125 125.6124786376953" style="background: rgba(0, 0, 0, 0);" preserveAspectRatio="xMidYMid"><defs><filter id="editing-hole" x="-100%" y="-100%" width="300%" height="300%"><feFlood flood-color="#ffffff" result="black"></feFlood><feMorphology operator="dilate" radius="2" in="SourceGraphic" result="erode"></feMorphology><feGaussianBlur in="erode" stdDeviation="4" result="blur"></feGaussianBlur><feOffset in="blur" dx="2" dy="2" result="offset"></feOffset><feComposite operator="atop" in="offset" in2="black" result="merge"></feComposite><feComposite operator="in" in="merge" in2="SourceGraphic" result="inner-shadow"></feComposite></filter></defs><g filter="url(#editing-hole)"><g transform="translate(106.76999568939209, 106.74499893188477)"><path d="M14.02 0L14.02-39.30L0.96-39.30L0.96-44.80L33.15-44.80L33.15-39.30L20.10-39.30L20.10 0L14.02 0ZM51.71 0.64L51.71 0.64Q46.91 0.64 43.39-1.50L43.39-1.50L43.39-1.50Q39.87-3.65 38.02-7.36L38.02-7.36L38.02-7.36Q36.16-11.07 36.16-15.68L36.16-15.68L36.16-15.68Q36.16-20.29 38.02-24L38.02-24L38.02-24Q39.87-27.71 43.39-29.86L43.39-29.86L43.39-29.86Q46.91-32 51.71-32L51.71-32L51.71-32Q56.45-32 60-29.86L60-29.86L60-29.86Q63.55-27.71 65.41-24L65.41-24L65.41-24Q67.26-20.29 67.26-15.68L67.26-15.68L67.26-15.68Q67.26-11.07 65.41-7.36L65.41-7.36L65.41-7.36Q63.55-3.65 60-1.50L60-1.50L60-1.50Q56.45 0.64 51.71 0.64L51.71 0.64ZM51.71-4.48L51.71-4.48Q56.32-4.48 58.85-7.42L58.85-7.42L58.85-7.42Q61.38-10.37 61.38-15.68L61.38-15.68L61.38-15.68Q61.38-20.99 58.85-23.94L58.85-23.94L58.85-23.94Q56.32-26.88 51.71-26.88L51.71-26.88L51.71-26.88Q47.10-26.88 44.58-23.94L44.58-23.94L44.58-23.94Q42.05-20.99 42.05-15.68L42.05-15.68L42.05-15.68Q42.05-10.37 44.58-7.42L44.58-7.42L44.58-7.42Q47.10-4.48 51.71-4.48L51.71-4.48ZM88.70-32L88.70-32Q101.50-32 101.50-17.28L101.50-17.28L101.50 0L95.74 0L95.74-17.28L95.74-17.28Q95.74-22.34 93.86-24.61L93.86-24.61L93.86-24.61Q91.97-26.88 87.55-26.88L87.55-26.88L87.55-26.88Q84.74-26.88 82.43-25.86L82.43-25.86L82.43-25.86Q80.13-24.83 78.98-22.78L78.98-22.78L78.98 0L73.22 0L73.22-31.36L77.70-31.36L78.34-28.03L78.34-28.03Q80.83-30.27 83.36-31.14L83.36-31.14L83.36-31.14Q85.89-32 88.70-32L88.70-32ZM111.36 15.49L118.59-1.41L105.54-31.36L111.94-31.36L121.73-8.06L130.56-31.36L136.96-31.36L117.76 15.49L111.36 15.49ZM186.50-44.80L162.11-5.50L186.18-5.50L186.18 0L152.38 0L176.64-39.30L155.26-39.30L155.26-44.80L186.50-44.80ZM205.82-32L205.82-32Q211.78-32 214.91-28.10L214.91-28.10L214.91-28.10Q218.05-24.19 218.05-17.47L218.05-17.47L218.05 0L212.29 0L212.29-16.77L212.29-16.77Q212.29-21.95 210.40-24.42L210.40-24.42L210.40-24.42Q208.51-26.88 204.54-26.88L204.54-26.88L204.54-26.88Q202.11-26.88 200.06-25.76L200.06-25.76L200.06-25.76Q198.02-24.64 196.61-22.59L196.61-22.59L196.61 0L190.78 0L190.78-48L196.61-48L196.61-28.35L196.61-28.35Q198.46-30.14 200.67-31.07L200.67-31.07L200.67-31.07Q202.88-32 205.82-32L205.82-32ZM232.83 0.64L232.83 0.64Q228.48 0.64 225.82-1.92L225.82-1.92L225.82-1.92Q223.17-4.48 223.17-8.45L223.17-8.45L223.17-8.45Q223.17-14.40 228.80-16.96L228.80-16.96L228.80-16.96Q234.43-19.52 241.92-19.65L241.92-19.65L241.92-19.65Q241.92-23.87 240.29-25.38L240.29-25.38L240.29-25.38Q238.66-26.88 235.07-26.88L235.07-26.88L235.07-26.88Q233.09-26.88 231.10-26.27L231.10-26.27L231.10-26.27Q229.12-25.66 226.82-24.06L226.82-24.06L225.98-28.74L225.98-28.74Q227.90-30.21 230.72-31.10L230.72-31.10L230.72-31.10Q233.54-32 236.61-32L236.61-32L236.61-32Q240.64-32 243.04-30.59L243.04-30.59L243.04-30.59Q245.44-29.18 246.56-25.92L246.56-25.92L246.56-25.92Q247.68-22.66 247.68-16.96L247.68-16.96L247.68-10.56L247.68-10.56Q247.68-8 247.90-6.69L247.90-6.69L247.90-6.69Q248.13-5.38 248.90-4.67L248.90-4.67L248.90-4.67Q249.66-3.97 251.26-3.97L251.26-3.97L251.84-3.97L250.94 0.64L250.50 0.64L250.50 0.64Q247.81 0.64 246.27 0.13L246.27 0.13L246.27 0.13Q244.74-0.38 243.94-1.34L243.94-1.34L243.94-1.34Q243.14-2.30 242.43-3.97L242.43-3.97L242.43-3.97Q238.46 0.64 232.83 0.64L232.83 0.64ZM233.92-3.97L233.92-3.97Q236.22-3.97 238.37-5.12L238.37-5.12L238.37-5.12Q240.51-6.27 241.92-8.19L241.92-8.19L241.92-15.68L241.92-15.68Q235.01-15.42 232.03-13.86L232.03-13.86L232.03-13.86Q229.06-12.29 229.06-8.77L229.06-8.77L229.06-8.77Q229.06-6.34 230.37-5.15L230.37-5.15L230.37-5.15Q231.68-3.97 233.92-3.97L233.92-3.97ZM269.95 0.64L269.95 0.64Q265.15 0.64 261.63-1.50L261.63-1.50L261.63-1.50Q258.11-3.65 256.26-7.36L256.26-7.36L256.26-7.36Q254.40-11.07 254.40-15.68L254.40-15.68L254.40-15.68Q254.40-20.29 256.26-24L256.26-24L256.26-24Q258.11-27.71 261.63-29.86L261.63-29.86L261.63-29.86Q265.15-32 269.95-32L269.95-32L269.95-32Q274.69-32 278.24-29.86L278.24-29.86L278.24-29.86Q281.79-27.71 283.65-24L283.65-24L283.65-24Q285.50-20.29 285.50-15.68L285.50-15.68L285.50-15.68Q285.50-11.07 283.65-7.36L283.65-7.36L283.65-7.36Q281.79-3.65 278.24-1.50L278.24-1.50L278.24-1.50Q274.69 0.64 269.95 0.64L269.95 0.64ZM269.95-4.48L269.95-4.48Q274.56-4.48 277.09-7.42L277.09-7.42L277.09-7.42Q279.62-10.37 279.62-15.68L279.62-15.68L279.62-15.68Q279.62-20.99 277.09-23.94L277.09-23.94L277.09-23.94Q274.56-26.88 269.95-26.88L269.95-26.88L269.95-26.88Q265.34-26.88 262.82-23.94L262.82-23.94L262.82-23.94Q260.29-20.99 260.29-15.68L260.29-15.68L260.29-15.68Q260.29-10.37 262.82-7.42L262.82-7.42L262.82-7.42Q265.34-4.48 269.95-4.48L269.95-4.48Z" fill="#ffffff"></path></g></g><style>text {
  font-size: 64px;
  font-family: Arial Black;
  dominant-baseline: central;
  text-anchor: middle;
}</style></svg>